<?xml version="1.0" encoding="UTF-8"?>
<!DOCTYPE svg PUBLIC "-//W3C//DTD SVG 1.1//EN" "http://www.w3.org/Graphics/SVG/1.1/DTD/svg11.dtd">
<!-- Creator: CorelDRAW X7 -->
<svg xmlns="http://www.w3.org/2000/svg" xml:space="preserve" width="105.101mm" height="25.276mm" version="1.1" style="shape-rendering:geometricPrecision; text-rendering:geometricPrecision; image-rendering:optimizeQuality; fill-rule:evenodd; clip-rule:evenodd"
viewBox="0 0 10848 2609"
 xmlns:xlink="http://www.w3.org/1999/xlink">
 <defs>
  <style type="text/css">
   <![CDATA[
    .fil0 {fill:#FF0009}
    .fil1 {fill:black;fill-rule:nonzero}
   ]]>
  </style>
 </defs>
 <g id="Layer_x0020_1">
  <metadata id="CorelCorpID_0Corel-Layer"/>
  <g id="_1637288070720">
   <path class="fil0" d="M961 1744c-18,-103 143,-74 213,-74l584 0c71,0 226,-28 244,46 25,104 -140,76 -214,76l-583 0c-72,0 -232,27 -244,-48zm599 -366l144 -146 145 142 -144 144 -145 -140zm-494 -2l141 -143 145 141c-15,30 -119,134 -149,147 -34,-41 -116,-103 -137,-145zm392 -346l144 143 -143 143c-44,-21 -106,-103 -147,-138 12,-29 122,-137 146,-148zm-182 -307c-203,7 -224,137 -206,330 -58,33 -81,12 -165,99 -155,162 -75,357 -153,646 -70,1 -136,-7 -177,38 -50,53 -25,125 14,160 -67,5 -133,-9 -200,8 -57,14 -95,54 -84,124 19,122 208,89 332,89l1681 0c128,0 312,33 339,-82 16,-65 -26,-119 -75,-132 -50,-14 -148,1 -208,-8 39,-29 63,-102 18,-155 -48,-56 -111,-41 -198,-41 -22,-79 -34,-134 -39,-223 -8,-145 1,-301 -109,-419 -87,-92 -99,-67 -169,-104 19,-192 -4,-324 -206,-330 0,-122 -7,-737 -197,-723 -174,14 -195,592 -198,723z"/>
   <path class="fil0" d="M118 2330c-114,17 -159,156 -74,237 67,62 266,37 370,37 186,0 2359,9 2433,-2 112,-17 156,-158 71,-237 -66,-61 -264,-36 -369,-36 -180,0 -2364,-9 -2431,1z"/>
  </g>
  <g id="_1637288069920">
   <path class="fil1" d="M3540 1989l0 -189c31,0 58,-2 80,-6 21,-3 38,-10 50,-21 12,-10 21,-25 26,-44 6,-20 8,-46 8,-77l0 -1016 269 0 0 1027c0,73 -9,134 -26,182 -17,48 -48,84 -92,108 -44,24 -106,36 -185,36l-130 0z"/>
   <path id="1" class="fil1" d="M4107 1955l255 -1319 298 0 254 1319 -249 0 -47 -290 -209 0 -50 290 -252 0zm327 -454l158 0 -80 -533 -78 533z"/>
   <polygon id="2" class="fil1" points="5100,1955 5100,836 4896,836 4896,636 5570,636 5570,836 5370,836 5370,1955 "/>
   <polygon id="3" class="fil1" points="5689,1955 5689,636 6264,636 6264,822 5958,822 5958,1172 6194,1172 6194,1359 5958,1359 5958,1772 6267,1772 6267,1955 "/>
   <polygon id="4" class="fil1" points="6402,1955 6402,636 6589,636 6882,1323 6882,636 7104,636 7104,1955 6925,1955 6632,1225 6632,1955 "/>
   <path id="5" class="fil1" d="M7641 1974c-89,0 -160,-18 -212,-56 -52,-37 -89,-90 -111,-159 -23,-69 -34,-149 -34,-240l0 -442c0,-94 12,-175 35,-244 22,-68 62,-121 119,-158 57,-37 134,-55 232,-55 95,0 169,16 224,47 55,32 94,76 118,134 24,57 36,125 36,205l0 76 -262 0 0 -93c0,-34 -2,-65 -7,-92 -4,-26 -14,-47 -30,-62 -16,-15 -41,-23 -76,-23 -35,0 -61,9 -78,28 -16,18 -26,42 -31,70 -4,29 -6,60 -6,92l0 585c0,37 3,70 10,99 6,30 18,52 36,69 18,16 44,24 78,24 33,0 59,-9 78,-26 18,-17 31,-41 38,-71 7,-30 11,-64 11,-102l0 -140 -129 0 0 -162 371 0 0 677 -176 0 -16 -119c-17,40 -43,73 -78,99 -35,26 -82,39 -140,39z"/>
   <path class="fil1" d="M8645 1955l0 -1319 287 0c98,0 175,15 232,45 57,30 98,75 122,134 24,60 37,134 37,223l0 485c0,94 -13,172 -37,236 -24,65 -64,113 -119,146 -55,33 -128,50 -220,50l-302 0zm184 -132l104 0c68,0 116,-13 144,-39 28,-26 45,-64 51,-114 6,-50 9,-110 9,-181l0 -428c0,-68 -4,-124 -13,-166 -9,-42 -28,-73 -57,-93 -29,-19 -75,-29 -138,-29l-100 0 0 1050z"/>
   <polygon id="1" class="fil1" points="9503,1955 9503,636 10014,636 10014,773 9687,773 9687,1209 9953,1209 9953,1339 9687,1339 9687,1823 10018,1823 10018,1955 "/>
   <polygon id="2" class="fil1" points="10395,1955 10101,636 10273,636 10482,1608 10680,636 10848,636 10557,1955 "/>
  </g>
 </g>
</svg>
